<svg width="97" height="86" viewBox="0 0 97 86" fill="none" xmlns="http://www.w3.org/2000/svg">
<path d="M58.9821 0L44.9425 13.6838V13.8694H26.9711L0 40.159V74.7959H6.85836C8.1916 81.1798 13.9975 86 20.9364 86C27.8754 86 33.6831 81.1794 35.0145 74.7959H59.1145C60.4517 81.1798 66.2556 86 73.1946 86C80.1335 86 85.9413 81.1794 87.2747 74.7959H97V41.5306L96.998 4.57974e-05L58.9821 0ZM61.3638 5.60207H91.2536V41.3175H50.6921V16.0033L61.3638 5.60207ZM29.3528 19.4734H44.9444V41.3215H6.9408L29.3528 19.4734ZM20.9367 80.4014C16.1833 80.4014 12.3139 76.6301 12.3139 71.997C12.3139 67.3641 16.1832 63.5927 20.9367 63.5927C25.6902 63.5927 29.5596 67.364 29.5596 71.997C29.5596 76.63 25.6923 80.4014 20.9367 80.4014ZM20.9367 57.9906C13.9978 57.9906 8.19001 62.8112 6.85868 69.1947H5.74998V46.921H44.9442V69.1947H35.0162C33.683 62.8088 27.8751 57.9906 20.9361 57.9906H20.9367ZM73.1944 80.4014C68.441 80.4014 64.5715 76.6301 64.5715 71.997C64.5715 67.3641 68.4408 63.5927 73.1944 63.5927C77.9479 63.5927 81.8173 67.364 81.8173 71.997C81.8173 76.63 77.9499 80.4014 73.1944 80.4014ZM91.2541 69.1973H87.2765C85.9393 62.8133 80.1354 57.9931 73.1964 57.9931C66.2575 57.9931 60.4497 62.8137 59.1163 69.1973H50.6921V47.1361H91.2536L91.2541 69.1973Z" fill="#333333"/>
</svg>
