<svg width="50" height="50" viewBox="0 0 50 50" fill="none" xmlns="http://www.w3.org/2000/svg">
<path d="M27.6266 35.084H27.1013C25.7355 35.084 24.5801 33.9285 24.5801 32.5628V25.525C24.5801 24.1592 25.7356 23.0038 27.1013 23.0038H27.6266C28.9924 23.0038 30.1478 24.1593 30.1478 25.525V32.5628C30.1478 33.9286 28.9923 35.084 27.6266 35.084Z" fill="#ECA225"/>
<path d="M26.8918 26.7858V37.3949C26.8918 39.1805 25.4212 40.651 23.7403 40.651L22.9006 40.6517C21.2198 40.6517 19.7492 39.1812 19.7492 37.3956V20.799C19.7492 18.4881 18.1739 16.4921 16.1779 16.4921H15.5478C13.6574 16.4921 11.9766 18.4881 11.9766 20.799V26.7867C11.9766 27.1018 12.1869 27.3121 12.5019 27.3121C12.817 27.3121 13.0273 27.1018 13.0273 26.7867V20.799C13.0273 19.0134 14.1828 17.5429 15.5485 17.5429H16.1786C17.5444 17.5429 18.6998 19.0134 18.6998 20.799V26.7867L18.6984 31.3032V37.3956C18.6984 39.7065 20.5887 41.7025 22.8997 41.7025H23.6353C25.9462 41.7025 27.8366 39.7065 27.8366 37.3956L27.8373 26.786L26.8918 26.7858Z" fill="#ECA225"/>
<path d="M32.1411 21.1134C32.3514 21.1134 32.5609 20.9032 32.4562 20.7984C32.0363 19.2231 30.4602 18.0675 28.6746 18.0675H25.9437C24.1581 18.0675 22.582 19.223 22.1622 20.7984C22.1622 21.0087 22.267 21.1134 22.4773 21.1134H32.1411Z" fill="#ECA225"/>
<path d="M22.4797 22.1638C22.2694 22.1638 22.0598 22.3741 22.1646 22.4789C22.5844 24.0542 24.1606 25.2098 25.9461 25.2098H28.677C30.4626 25.2098 32.0387 24.0543 32.4585 22.4789C32.4585 22.2686 32.3537 22.1638 32.1434 22.1638H22.4797Z" fill="#ECA225"/>
<path d="M30.1454 15.7564C30.0406 15.7564 29.9351 15.7564 29.8303 15.6516C28.4646 14.3913 26.2591 14.3913 24.8934 15.6516C24.6831 15.8619 24.368 15.8619 24.1577 15.6516C23.9474 15.4413 23.9474 15.1262 24.1577 14.9159C25.9433 13.3406 28.7798 13.3406 30.4606 14.9159C30.6709 15.1262 30.6709 15.4413 30.4606 15.6516C30.4606 15.7564 30.2503 15.7564 30.1455 15.7564H30.1454Z" fill="#ECA225"/>
<path d="M22.5815 14.0757C22.4767 14.0757 22.2664 13.9709 22.1616 13.8654C21.9513 13.6551 21.9513 13.34 22.1616 13.1297C24.9979 10.6085 29.5144 10.6085 32.246 13.1297C32.4563 13.34 32.4563 13.6551 32.246 13.8654C32.0357 14.0757 31.7207 14.0757 31.5104 13.8654C29.0946 11.6591 25.2075 11.6591 22.7919 13.8654C22.8967 14.0757 22.7912 14.0757 22.5816 14.0757H22.5815Z" fill="#ECA225"/>
<path d="M33.9292 12.395C33.8244 12.395 33.7189 12.395 33.6141 12.2902C30.1478 9.13874 24.5805 9.13874 21.114 12.2902C20.9037 12.5005 20.5886 12.5005 20.3783 12.2902C20.168 12.0799 20.168 11.7648 20.3783 11.5545C24.1598 8.08815 30.4627 8.08815 34.2442 11.5545C34.4545 11.7648 34.4545 12.0799 34.2442 12.2902C34.2442 12.2895 34.0339 12.395 33.9292 12.395H33.9292Z" fill="#ECA225"/>
<path d="M25 50C11.2397 50 0 38.7601 0 25C0 11.2399 11.2399 0 25 0C38.7601 0 50 11.2399 50 25C50 38.7601 38.7601 50 25 50ZM25 1.05042C11.7649 1.05042 1.05042 11.7649 1.05042 25C1.05042 38.2351 11.7649 48.9496 25 48.9496C38.2351 48.9496 48.9496 38.2351 48.9496 25C48.9496 11.7649 38.2351 1.05042 25 1.05042Z" fill="#ECA225"/>
</svg>
