<svg width="50" height="47" viewBox="0 0 50 47" fill="none" xmlns="http://www.w3.org/2000/svg">
<path d="M28.2997 25.9605C28.2655 25.6361 28.0382 25.3592 27.7152 25.2491C27.3926 25.1389 27.0319 25.2151 26.7887 25.4452L21.3669 30.6079C21.1173 30.8459 20.7606 30.9527 20.413 30.8927C20.065 30.8327 19.7702 30.6143 19.6246 30.308L17.4383 25.7663C17.2486 25.3728 17.3415 24.9085 17.6692 24.6086L24.7798 18.0728C25.0464 17.8268 25.1246 17.4496 24.9754 17.1263C23.8064 14.5914 22.4157 11.5366 21.5713 9.94395C20.038 7.04571 16.5848 6.06534 14.6651 5.73604C11.2519 5.15737 6.99469 5.11512 0.888988 5.11512V5.11475C0.398159 5.11475 0.000172822 5.49311 0.000172822 5.95973C0.000172822 6.42635 0.398159 6.80471 0.888988 6.80471C6.90195 6.80471 11.0834 6.84696 14.3502 7.40035C15.493 7.58896 16.5964 7.95261 17.6166 8.47768C17.0166 9.9353 17.3234 11.6381 17.3055 13.6743C17.2079 14.5193 15.3767 16.4839 0.889343 16.4839C0.398514 16.4839 0.000527765 16.8622 0.000527765 17.3289C0.000527765 17.7959 0.398514 18.1738 0.889343 18.1738C13.3815 18.1738 18.8251 16.86 19.0791 13.7841V13.7547V13.7294C19.0791 12.0394 18.9013 10.6199 19.1235 9.56781C19.4612 9.9009 19.7457 10.2796 19.9679 10.6916C20.7678 12.2126 21.9499 14.815 23.0787 17.2696L16.4436 23.3961C16.021 23.7865 15.7353 24.2916 15.6266 24.842C15.5175 25.3928 15.5901 25.962 15.8349 26.4716L18.0212 31.0051C18.4125 31.812 19.1937 32.3865 20.1135 32.5438C21.0333 32.7011 21.9761 32.4216 22.6387 31.795L26.6384 27.9926C26.6693 29.1164 26.6384 29.7207 26.6384 36.751C26.6384 38.2889 25.9761 39.0706 24.6694 39.0706H0.888815C0.397986 39.0706 0 39.4485 0 39.9155C0 40.3822 0.397986 40.7605 0.888815 40.7605H18.2202V43.7561V43.7557C18.1904 44.5441 18.5103 45.308 19.1019 45.8607C19.6939 46.4137 20.5025 46.7045 21.331 46.6626H25.3307C26.1616 46.7049 26.9726 46.4122 27.5646 45.8565C28.157 45.3009 28.4753 44.5336 28.4415 43.7433V36.7382C28.4106 30.0165 28.5217 28.1153 28.2995 25.9601L28.2997 25.9605ZM25.3308 44.9731H21.3311C20.9732 45.0138 20.6149 44.8992 20.3562 44.6604C20.0975 44.422 19.9658 44.0851 19.9979 43.7437V40.7481H24.6951C25.3844 40.7651 26.0648 40.6033 26.664 40.2792V43.7437C26.6962 44.0851 26.5644 44.4219 26.3057 44.6603C26.047 44.8991 25.6887 45.0138 25.3308 44.9731V44.9731Z" fill="#ECA225"/>
<path d="M49.7352 8.84551L40.6915 0.247836C40.5249 0.0890276 40.2987 0 40.063 0C39.8269 0 39.6007 0.0890257 39.4341 0.247836L34.6611 4.79375C34.494 4.95218 34.4004 5.1672 34.4004 5.39165C34.4004 5.61572 34.494 5.83074 34.6611 5.98955L36.0431 7.30337L39.4384 15.0391C39.5245 15.2518 39.6979 15.4227 39.9186 15.5125C40.1392 15.6019 40.3888 15.603 40.6102 15.5151C40.8316 15.4272 41.0066 15.2579 41.0947 15.0459C41.1827 14.8335 41.1768 14.5966 41.0784 14.3884L39.3409 10.4381L43.7004 14.5826C43.8671 14.7415 44.0933 14.8305 44.3294 14.8305C44.565 14.8305 44.7912 14.7415 44.9579 14.5826L49.7396 10.0409H49.74C49.9062 9.88208 49.9991 9.66668 49.9983 9.44224C49.9975 9.21817 49.9031 9.00315 49.7352 8.84547L49.7352 8.84551ZM44.3269 12.7916L36.5411 5.38939L40.0654 2.04345L47.8465 9.44115L44.3269 12.7916Z" fill="#ECA225"/>
<path d="M34.6636 9.80449C34.5775 9.59174 34.4041 9.42085 34.1835 9.33145C33.9628 9.24167 33.7133 9.24054 33.4918 9.32843C33.2704 9.41633 33.0954 9.5857 33.0074 9.7977C32.9193 10.0101 32.9252 10.247 33.0236 10.4552L36.3432 17.9967H36.3436C36.4297 18.2095 36.6027 18.3803 36.8237 18.4701C37.0444 18.5595 37.2935 18.5606 37.5154 18.4728C37.7368 18.3849 37.9114 18.2155 37.9994 18.0035C38.0875 17.7911 38.082 17.5542 37.9832 17.346L34.6636 9.80449Z" fill="#ECA225"/>
<path d="M31.5522 12.7624C31.4661 12.5496 31.2927 12.3787 31.0721 12.2893C30.8515 12.1996 30.6019 12.1984 30.3805 12.2863C30.1591 12.3742 29.9841 12.5436 29.896 12.7556C29.8079 12.968 29.8139 13.2049 29.9123 13.4131L33.2319 20.9546H33.2323C33.3184 21.1673 33.4914 21.3382 33.7124 21.428C33.933 21.5174 34.1822 21.5185 34.404 21.4306C34.6254 21.3427 34.8 21.1734 34.8881 20.9614C34.9762 20.749 34.9706 20.5121 34.8718 20.3039L31.5522 12.7624Z" fill="#ECA225"/>
<path d="M28.4409 15.7193C28.3548 15.5065 28.1814 15.3356 27.9608 15.2462C27.7402 15.1565 27.4906 15.1553 27.2692 15.2432C27.0478 15.3311 26.8728 15.5005 26.7847 15.7125C26.6966 15.9249 26.7026 16.1618 26.801 16.37L30.1206 23.9115H30.121C30.2071 24.1242 30.3801 24.2951 30.6011 24.3849C30.8217 24.4743 31.0709 24.4754 31.2927 24.3875C31.5141 24.2997 31.6887 24.1303 31.7768 23.9183C31.8649 23.7059 31.8593 23.469 31.7605 23.2608L28.4409 15.7193Z" fill="#ECA225"/>
</svg>
