<svg width="50" height="32" viewBox="0 0 50 32" fill="none" xmlns="http://www.w3.org/2000/svg">
<path d="M7.94027 31.6722C8.2862 31.6674 8.5963 31.4815 8.72882 31.199C8.86134 30.9169 8.79123 30.5919 8.55008 30.3727C-0.488393 22.7208 -0.487999 8.95217 8.55008 1.30005V1.29971C8.88445 1.00195 8.88329 0.52167 8.54738 0.225244C8.21147 -0.070808 7.66714 -0.0718348 7.32965 0.223204C4.2236 2.96384 1.98973 6.37753 0.852867 10.1212C-0.284289 13.8652 -0.284289 17.8071 0.852867 21.5506C1.98963 25.2943 4.2236 28.708 7.32965 31.4486C7.49144 31.5917 7.71103 31.6719 7.94023 31.6716L7.94027 31.6722Z" fill="#ECA225"/>
<path d="M41.4989 0.222764C41.1618 0.520182 41.1618 1.00216 41.4989 1.29923C50.5374 8.95117 50.537 22.7198 41.4989 30.3719V30.3722C41.1645 30.67 41.1657 31.1503 41.5016 31.4467C41.8375 31.7427 42.3818 31.7438 42.7193 31.4487C52.4273 23.2306 52.427 8.44103 42.7193 0.223316C42.5575 0.0802199 42.338 0 42.1091 0C41.8799 0 41.6607 0.0802181 41.4989 0.223316L41.4989 0.222764Z" fill="#ECA225"/>
<path d="M12.2117 4.53007C12.54 4.23163 12.5357 3.75577 12.2025 3.46143C11.8693 3.16742 11.33 3.16401 10.9914 3.45361C3.29194 9.97158 3.29194 21.7007 10.9914 28.219C11.3304 28.5056 11.867 28.5005 12.199 28.2075C12.5307 27.9145 12.5365 27.4413 12.2114 27.1422C5.18184 21.1908 5.18184 10.4823 12.2118 4.53044L12.2117 4.53007Z" fill="#ECA225"/>
<path d="M38.4501 28.4418C38.679 28.4422 38.8985 28.3616 39.0603 28.2189C46.7598 21.7016 46.7598 9.97176 39.0603 3.45345V3.45311C38.7213 3.16657 38.1847 3.17167 37.8527 3.46467C37.521 3.75766 37.5152 4.23081 37.8403 4.52991C44.8703 10.4813 44.8699 21.1898 37.8403 27.1417C37.5996 27.3613 37.5295 27.6859 37.6616 27.968C37.7941 28.2504 38.1038 28.4364 38.4501 28.4415L38.4501 28.4418Z" fill="#ECA225"/>
<path d="M15.2612 25.2109C15.6075 25.2061 15.9172 25.0202 16.0498 24.7377C16.1823 24.4556 16.1122 24.1307 15.871 23.9111C13.4587 21.7626 12.105 18.8601 12.105 15.8356C12.105 12.8112 13.4587 9.90878 15.871 7.7602C16.195 7.46074 16.1888 6.98828 15.8572 6.69565C15.5255 6.40333 14.99 6.3979 14.6511 6.68376C11.9167 9.11879 10.3828 12.4081 10.3828 15.836C10.3828 19.264 11.9168 22.5532 14.6511 24.9883C14.8129 25.1314 15.0324 25.2113 15.2613 25.2109L15.2612 25.2109Z" fill="#ECA225"/>
<path d="M34.7882 25.2109C35.017 25.2113 35.2366 25.1311 35.3984 24.988C38.1328 22.5529 39.6667 19.2637 39.6667 15.8357C39.6667 12.4077 38.1327 9.11855 35.3984 6.68343C35.0594 6.39587 34.5224 6.40063 34.19 6.69397C33.8575 6.9873 33.8525 7.46113 34.1784 7.76025C36.5911 9.90875 37.9444 12.8112 37.9444 15.8357C37.9444 18.8602 36.5911 21.7626 34.1784 23.9111C33.9376 24.1307 33.8671 24.4553 33.9997 24.7378C34.1322 25.0203 34.4419 25.2062 34.7882 25.2109L34.7882 25.2109Z" fill="#ECA225"/>
<path d="M18.9206 21.9809C19.2669 21.9758 19.577 21.7902 19.7095 21.5078C19.842 21.2253 19.7719 20.9007 19.5308 20.6811C18.0766 19.3949 17.2599 17.6522 17.2599 15.8354C17.2599 14.0186 18.0766 12.276 19.5308 10.9897C19.8578 10.6909 19.8532 10.2161 19.5204 9.92238C19.1875 9.62867 18.6494 9.62462 18.3107 9.9132C16.5334 11.4849 15.5352 13.6147 15.5352 15.8354C15.5352 18.056 16.5333 20.1858 18.3107 21.7575C18.4721 21.9006 18.6917 21.9809 18.9205 21.9809L18.9206 21.9809Z" fill="#ECA225"/>
<path d="M31.7374 9.91366C31.3992 9.62406 30.8599 9.62745 30.5267 9.92181C30.1931 10.2158 30.1892 10.6917 30.5174 10.9901C31.9716 12.2763 32.7883 14.019 32.7883 15.8358C32.7883 17.6526 31.9716 19.3952 30.5174 20.6815C30.351 20.8232 30.2559 21.0184 30.2539 21.2226C30.252 21.4269 30.3429 21.623 30.5066 21.7675C30.6704 21.912 30.893 21.9922 31.1245 21.9905C31.3557 21.9888 31.5768 21.9052 31.7374 21.758C33.5148 20.1863 34.513 18.0564 34.513 15.8358C34.513 13.6152 33.5149 11.4854 31.7374 9.91364L31.7374 9.91366Z" fill="#ECA225"/>
<path d="M29.3379 15.8359C29.1568 10.8051 20.8895 10.806 20.7089 15.8359C20.8899 20.8668 29.1572 20.8659 29.3379 15.8359ZM22.4347 15.8359C22.4347 15.0198 22.9281 14.2659 23.729 13.8577C24.5299 13.4498 25.5168 13.4498 26.3177 13.8577C27.1186 14.266 27.6121 15.0198 27.6121 15.8359C27.6121 16.6521 27.1186 17.406 26.3177 17.8141C25.5168 18.222 24.5299 18.222 23.729 17.8141C22.9281 17.4059 22.4347 16.6521 22.4347 15.8359Z" fill="#ECA225"/>
</svg>
