<svg width="44" height="20" viewBox="0 0 44 20" fill="none" xmlns="http://www.w3.org/2000/svg">
<path fill-rule="evenodd" clip-rule="evenodd" d="M23.4828 19.7224C23.4428 19.7043 23.4059 19.6823 23.3716 19.657C23.2649 19.6674 23.1537 19.649 23.0497 19.5977C22.4356 19.2965 21.8386 19.1173 21.2489 19.0856C20.6638 19.0535 20.0642 19.1658 19.4371 19.4774C19.4196 19.4862 19.4013 19.4942 19.383 19.501C18.0139 20.0239 16.7377 20.1967 15.7107 19.7224C15.6573 19.6979 15.6086 19.6666 15.5655 19.6293C15.5392 19.6209 15.5133 19.6101 15.4878 19.5977C14.8737 19.2965 14.2768 19.1173 13.687 19.0856C13.1019 19.0535 12.5023 19.1658 11.8752 19.4774C11.8577 19.4862 11.8394 19.4942 11.8212 19.501C10.452 20.0239 9.17583 20.1967 8.14919 19.7224C8.10919 19.7043 8.07224 19.6823 8.03834 19.657C7.93129 19.6674 7.82005 19.649 7.71605 19.5977C7.10195 19.2965 6.505 19.1173 5.91528 19.0856C5.33013 19.0535 4.73056 19.1658 4.10348 19.4774C4.08596 19.4862 4.06767 19.4942 4.04939 19.501C2.68025 20.0239 1.40406 20.1967 0.377035 19.7224C0.0585612 19.5752 -0.086583 19.1838 0.0532269 18.8486C0.193037 18.5134 0.564846 18.3606 0.88332 18.5078C1.42465 18.758 2.24026 18.742 3.38578 18.3398L3.60139 18.2604L3.71796 18.2051C4.10158 18.0286 4.48444 17.9067 4.86504 17.8346L4.08485 11.119C4.03913 10.724 4.33247 10.3752 4.71075 10.3752H6.55912L8.14232 8.70876L9.32255 3.81647C9.39341 3.52255 9.64446 3.31645 9.93283 3.31645L12.4197 3.31444C12.4182 3.26111 12.4224 3.20698 12.4334 3.15205L12.9584 0.526881C13.0197 0.219732 13.2772 0 13.5751 0H32.3825C32.6092 0 32.8184 0.128312 32.9304 0.336414C33.4439 1.28954 33.8496 2.28071 34.0169 3.30002H36.8576C36.9974 3.30002 37.1334 3.34934 37.2439 3.43956C37.9772 4.03862 38.847 5.29886 39.5993 6.61165C40.3155 7.86111 40.9795 9.25448 41.3681 10.3752H43.3693C43.828 10.3752 44.1335 10.8768 43.9419 11.3155C43.0367 13.3881 41.8679 15.5991 39.1606 18.6085C39.2897 18.7969 39.3206 19.0511 39.2211 19.2761C39.0741 19.6081 38.6988 19.7521 38.3838 19.5977C37.7697 19.2965 37.1728 19.1173 36.583 19.0856C35.9979 19.0536 35.3983 19.1658 34.7712 19.4774C34.7537 19.4862 34.7354 19.4942 34.7171 19.501C33.348 20.0239 32.0718 20.1967 31.0448 19.7224C30.9915 19.6979 30.9427 19.6666 30.8996 19.6293C30.8734 19.6209 30.8475 19.6101 30.8219 19.5977C30.2078 19.2965 29.6109 19.1173 29.0212 19.0856C28.436 19.0535 27.8364 19.1658 27.2094 19.4774C27.1918 19.4862 27.1736 19.4942 27.1553 19.501C25.7861 20.0239 24.5099 20.1967 23.4833 19.7224L23.4828 19.7224ZM26.4916 18.3398L26.7073 18.2604L26.8234 18.205C27.585 17.855 28.3404 17.7207 29.0855 17.7608C29.8752 17.8033 30.6321 18.0415 31.3533 18.3951C31.4017 18.4188 31.4459 18.448 31.4855 18.4821C31.5072 18.4893 31.5289 18.4978 31.5507 18.5078C32.092 18.758 32.908 18.742 34.0531 18.3398L34.2691 18.2604L34.3853 18.2051C35.1468 17.855 35.9019 17.7207 36.6474 17.7608C37.1041 17.7852 37.5502 17.8755 37.9845 18.0158C38.0108 17.9657 38.0436 17.9188 38.0828 17.8755C40.1208 15.638 41.2619 13.8797 42.0733 12.297L42.3647 11.7016H5.42273L6.12749 17.7708C6.86425 17.8337 7.57172 18.0635 8.24824 18.3951C8.28253 18.4119 8.31529 18.432 8.34576 18.4544C8.44824 18.4444 8.55452 18.4613 8.65548 18.5078C9.19681 18.758 10.0128 18.7419 11.1583 18.3398L11.3739 18.2604L11.4901 18.205C12.2517 17.855 13.0067 17.7206 13.7522 17.7608C14.5419 17.8033 15.2984 18.0414 16.02 18.3951C16.0684 18.4188 16.1126 18.448 16.1522 18.4821C16.1739 18.4893 16.1956 18.4977 16.2173 18.5078C16.7587 18.758 17.5747 18.7419 18.7198 18.3398L18.9354 18.2604L19.052 18.205C19.8135 17.855 20.5686 17.7207 21.3141 17.7608C22.1038 17.8033 22.8603 18.0414 23.5819 18.3951C23.6165 18.4119 23.6493 18.432 23.6794 18.4544C23.7819 18.4444 23.8881 18.4613 23.9891 18.5078C24.5304 18.758 25.3464 18.7419 26.492 18.3398L26.4916 18.3398ZM38.5202 7.29773C37.8619 6.14969 37.1895 5.18858 36.6791 4.6781L36.6231 4.62718H28.2048L10.4233 4.64281L9.32082 9.21238C9.29301 9.32786 9.23586 9.43371 9.15549 9.51793L8.34101 10.3756H40.0157C39.6515 9.44094 39.111 8.32868 38.5197 7.29776L38.5202 7.29773ZM25.4784 8.07522C25.2163 7.79935 25.2163 7.35065 25.4784 7.07478C25.7408 6.79891 26.1671 6.79891 26.4292 7.07478C26.6913 7.35065 26.6913 7.79935 26.4292 8.07522C26.1671 8.35109 25.7408 8.35109 25.4784 8.07522ZM29.2848 8.07522C29.0223 7.79935 29.0223 7.35065 29.2848 7.07478C29.5469 6.79891 29.9732 6.79891 30.2353 7.07478C30.4974 7.35065 30.4974 7.79935 30.2353 8.07522C29.9732 8.35109 29.5469 8.35109 29.2848 8.07522ZM33.0909 8.07522C32.8288 7.79935 32.8288 7.35065 33.0909 7.07478C33.353 6.79891 33.7792 6.79891 34.0413 7.07478C34.3034 7.35065 34.3034 7.79935 34.0413 8.07522C33.7792 8.35109 33.353 8.35109 33.0909 8.07522ZM14.0601 8.07482C13.798 7.79894 13.798 7.35025 14.0601 7.07438C14.3222 6.79851 14.7485 6.79851 15.0106 7.07438C15.2731 7.35025 15.2731 7.79894 15.0106 8.07482C14.7485 8.35069 14.3222 8.35069 14.0601 8.07482ZM17.8662 8.07482C17.6041 7.79894 17.6041 7.35025 17.8662 7.07438C18.1283 6.79851 18.5545 6.79851 18.817 7.07438C19.0791 7.35025 19.0791 7.79894 18.817 8.07482C18.5545 8.35069 18.1283 8.35069 17.8662 8.07482ZM21.6722 8.07482C21.4101 7.79894 21.4101 7.35025 21.6722 7.07438C21.9347 6.79851 22.3606 6.79851 22.6231 7.07438C22.8852 7.35025 22.8852 7.79894 22.6231 8.07482C22.3606 8.35069 21.9347 8.35069 21.6722 8.07482ZM13.6886 3.31361L28.2041 3.30037H32.7321C32.6205 2.76306 32.4254 2.21249 32.1629 1.64719L32.0083 1.32681H14.0864L13.6886 3.31361Z" fill="#ECA225"/>
</svg>
